HIERARCHY
ROOT Root
{
  OFFSET -4.36429 11.8871 9.90712
  CHANNELS 6 Xposition Yposition Zposition Zrotation Xrotation Yrotation
  JOINT Spine
  {
    OFFSET 5.3114 0 0
    CHANNELS 3 Zrotation Xrotation Yrotation
    JOINT Spine1
    {
      OFFSET 2.79004 0 0
      CHANNELS 3 Zrotation Xrotation Yrotation
      JOINT Neck
      {
        OFFSET 1.43377 0 0
        CHANNELS 3 Zrotation Xrotation Yrotation
        JOINT Head
        {
          OFFSET 1.86043 0 0
          CHANNELS 3 Zrotation Xrotation Yrotation
          End Site
          {
            OFFSET 0 0 0
          }
        }
      }
      JOINT LeftArm
      {
        OFFSET 0.0387506 0 2.55754
        CHANNELS 3 Zrotation Xrotation Yrotation
        JOINT LeftForeArm
        {
          OFFSET 4.24845 0 0
          CHANNELS 3 Zrotation Xrotation Yrotation
          JOINT LeftHand
          {
            OFFSET 4.01008 0 0
            CHANNELS 3 Zrotation Xrotation Yrotation
            End Site
            {
              OFFSET 0 0 0
            }
          }
        }
      }
      JOINT RightArm
      {
        OFFSET 0.0387506 0 -2.55754
        CHANNELS 3 Zrotation Xrotation Yrotation
        JOINT RightForeArm
        {
          OFFSET -4.24845 0 0
          CHANNELS 3 Zrotation Xrotation Yrotation
          JOINT RightHand
          {
            OFFSET -4.01009 0 0
            CHANNELS 3 Zrotation Xrotation Yrotation
            End Site
            {
              OFFSET 0 0 0
            }
          }
        }
      }
    }
  }
  JOINT LeftUpLeg
  {
    OFFSET -1.23318 0 2.05692
    CHANNELS 3 Zrotation Xrotation Yrotation
    JOINT LeftLeg
    {
      OFFSET 5.46397 0 0
      CHANNELS 3 Zrotation Xrotation Yrotation
      JOINT LeftFoot
      {
        OFFSET 4.68898 0 0
        CHANNELS 3 Zrotation Xrotation Yrotation
        End Site
        {
          OFFSET 0 0 0
        }
      }
    }
  }
  JOINT RightUpLeg
  {
    OFFSET -1.24454 0 -2.05007
    CHANNELS 3 Zrotation Xrotation Yrotation
    JOINT RightLeg
    {
      OFFSET -5.46397 0 0
      CHANNELS 3 Zrotation Xrotation Yrotation
      JOINT RightFoot
      {
        OFFSET -4.68901 0 0
        CHANNELS 3 Zrotation Xrotation Yrotation
        End Site
        {
          OFFSET 0 0 0
        }
      }
    }
  }
}
MOTION
Frames:	15
Frame Time:	0.00833333
16.9292 11.7635 -8.37419 101.213 -17.3036 2.47984 1.33891 0.783867 4.88876 6.32647 0.195895 1.29161 -16.7763 -0.124231 -2.66682 31.2784 -0.856991 -0.0804455 -6.41737 -49.7651 -165.624 31.55 2.31139 18.169 -0.116299 -1.33014 174.458 168.456 -27.3528 -160.932 35.9033 3.42454 20.5435 1.02737 11.582 174.35 -10.8463 4.59873 -175.224 -53.1817 -1.13257 -1.79872 20.5561 -11.1403 179.586 147.058 -11.0134 177.812 -27.6689 -0.584774 -1.18334 -12.3644 2.92528 177.009 
16.877 11.7619 -8.41062 101.222 -17.213 2.50866 1.28608 1.06249 4.90605 6.43261 0.276577 1.30109 -16.7942 -0.206164 -2.66459 31.4314 -1.0355 -0.100653 -5.78057 -49.2583 -165.69 32.1674 2.45979 18.508 -0.241728 -2.76292 174.453 167.857 -26.9246 -160.648 36.4194 3.56861 20.8215 1.01433 11.4381 174.353 -11.7209 4.46612 -175.498 -53.418 -1.16059 -1.80378 21.4434 -11.0607 179.79 147.123 -10.9285 177.738 -28.1352 -0.596028 -1.19518 -12.2874 3.39737 177.115 
16.8248 11.7587 -8.44527 101.234 -17.0576 2.54262 1.22429 1.28152 4.9217 6.53963 0.341086 1.32172 -16.7979 -0.282149 -2.65543 31.5412 -1.20361 -0.139637 -5.14233 -48.7709 -165.709 32.8426 2.62526 18.8783 -0.367713 -4.19835 174.445 167.254 -26.4415 -160.345 36.9435 3.71659 21.1036 1.00464 11.3304 174.354 -12.6357 4.2706 -175.798 -53.6447 -1.19097 -1.80796 22.4205 -11.058 -179.972 147.172 -10.8281 177.702 -28.6613 -0.606041 -1.20908 -12.1331 3.87562 177.219 
16.7722 11.7551 -8.47862 101.241 -16.8465 2.56748 1.16086 1.45154 4.94723 6.63608 0.391847 1.34682 -16.7914 -0.350871 -2.64887 31.6272 -1.35679 -0.178549 -4.52456 -48.2689 -165.716 33.5104 2.79139 19.2444 -0.484333 -5.52201 174.434 166.68 -25.9024 -160.026 37.5121 3.88176 21.4074 0.988757 11.1547 174.357 -13.5659 4.02328 -176.108 -53.8438 -1.22157 -1.81101 23.4141 -11.0868 -179.722 147.234 -10.6998 177.687 -29.1943 -0.615764 -1.22342 -11.9277 4.35146 177.32 
16.7188 11.7522 -8.51117 101.238 -16.5887 2.56909 1.10296 1.5831 4.99421 6.71051 0.431285 1.36969 -16.779 -0.411013 -2.65443 31.7089 -1.4905 -0.198534 -3.94725 -47.718 -165.744 34.1065 2.94205 19.5708 -0.581464 -6.61951 174.423 166.163 -25.3061 -159.691 38.1613 4.07715 21.7505 0.95718 10.8064 174.362 -14.4864 3.73531 -176.414 -53.9976 -1.2502 -1.81271 24.3501 -11.102 -179.481 147.342 -10.5313 177.681 -29.6814 -0.626148 -1.23659 -11.6972 4.81634 177.415 
16.6645 11.7503 -8.5428 101.224 -16.2758 2.54789 1.04819 1.66408 5.06462 6.75134 0.456142 1.39257 -16.752 -0.457111 -2.68334 31.789 -1.59411 -0.18818 -3.40687 -47.0916 -165.81 34.6329 3.07929 19.8573 -0.654226 -7.43802 174.414 165.711 -24.6469 -159.344 38.8977 4.30228 22.1391 0.904956 10.2297 174.372 -15.3978 3.38398 -176.726 -54.1005 -1.27714 -1.81286 25.231 -11.1013 -179.248 147.501 -10.3075 177.691 -30.1175 -0.637205 -1.24854 -11.4451 5.26843 177.505 
16.6094 11.7488 -8.57333 101.204 -15.9066 2.51021 0.994237 1.69384 5.1526 6.76753 0.466426 1.41769 -16.7115 -0.491569 -2.72763 31.8581 -1.67317 -0.159665 -2.89402 -46.4135 -165.892 35.118 3.20979 20.1196 -0.708486 -8.04601 174.406 165.306 -23.9279 -158.984 39.7013 4.55076 22.5636 0.838182 9.48965 174.384 -16.3127 2.97182 -177.045 -54.1624 -1.30326 -1.81161 26.0889 -11.1055 -179.013 147.694 -10.0388 177.721 -30.5279 -0.648509 -1.25999 -11.1584 5.71212 177.592 
16.5539 11.7477 -8.60314 101.173 -15.5007 2.4509 0.948286 1.70011 5.25804 6.77851 0.469464 1.43835 -16.676 -0.524873 -2.768 31.9178 -1.74747 -0.129519 -2.42006 -45.7259 -165.964 35.5382 3.32476 20.3463 -0.750115 -8.51101 174.399 164.939 -23.1621 -158.601 40.5687 4.82649 23.0181 0.763941 8.66303 174.396 -17.2232 2.54803 -177.351 -54.1882 -1.32731 -1.80931 26.8937 -11.1041 -178.789 147.923 -9.75167 177.748 -30.9048 -0.660351 -1.27055 -10.8381 6.1482 177.671 
16.4982 11.7471 -8.63258 101.13 -15.0772 2.36479 0.917371 1.71064 5.38085 6.80368 0.472582 1.44787 -16.6641 -0.567508 -2.78514 31.9696 -1.83679 -0.114274 -1.99823 -45.0711 -166.005 35.8702 3.41549 20.5259 -0.78507 -8.90054 174.394 164.603 -22.3622 -158.189 41.4961 5.13332 23.497 0.689168 7.82669 174.407 -18.1196 2.16189 -177.621 -54.183 -1.34808 -1.80626 27.6151 -11.0867 -178.59 148.188 -9.47246 177.749 -31.2404 -0.673023 -1.27977 -10.4845 6.57742 177.739 
16.4423 11.7473 -8.66177 101.063 -14.6367 2.23302 0.91305 1.73072 5.54051 6.85043 0.476327 1.43773 -16.6806 -0.624339 -2.77259 32.0067 -1.94882 -0.114916 -1.64387 -44.4531 -166.01 36.1009 3.47854 20.6508 -0.812336 -9.20377 174.389 164.323 -21.5644 -157.721 42.4961 5.47444 24.0091 0.607653 6.9109 174.418 -18.9928 1.8115 -177.835 -54.1482 -1.36507 -1.80237 28.2429 -11.0555 -178.417 148.514 -9.21252 177.705 -31.5102 -0.686825 -1.28697 -10.0812 7.00014 177.792 
16.386 11.7482 -8.6905 100.978 -14.1703 2.06462 0.928351 1.74625 5.73058 6.90767 0.47726 1.41373 -16.7156 -0.68909 -2.74107 32.0306 -2.0722 -0.123771 -1.34795 -43.852 -165.993 36.2459 3.51922 20.7286 -0.8295 -9.39431 174.386 164.092 -20.7519 -157.209 43.5637 5.84573 24.5548 0.518472 5.90476 174.428 -19.8486 1.4757 -178.009 -54.0811 -1.37899 -1.79752 28.7938 -11.0147 -178.264 148.892 -8.95635 177.632 -31.726 -0.701528 -1.29255 -9.63288 7.41587 177.833 
16.3295 11.7491 -8.71867 100.899 -13.6836 1.896 0.942416 1.75586 5.91202 6.96713 0.476732 1.3907 -16.7653 -0.755531 -2.69712 32.0552 -2.19816 -0.144384 -1.08815 -43.2739 -165.956 36.3241 3.54192 20.7702 -0.840505 -9.51633 174.384 163.847 -19.8586 -156.704 44.6693 6.24032 25.1153 0.436217 4.97333 174.436 -20.6985 1.17503 -178.177 -53.9804 -1.3904 -1.79205 29.2776 -10.9559 -178.132 149.277 -8.69013 177.563 -31.9339 -0.716629 -1.2978 -9.17244 7.82419 177.869 
16.2731 11.7493 -8.74618 100.847 -13.1826 1.76328 0.934434 1.75816 6.04584 7.02053 0.476091 1.38348 -16.8257 -0.817429 -2.6473 32.0942 -2.31788 -0.180304 -0.841988 -42.7253 -165.901 36.3548 3.55098 20.7864 -0.849319 -9.61399 174.382 163.53 -18.8194 -156.255 45.7841 6.65172 25.672 0.375298 4.28169 174.441 -21.5548 0.929968 -178.372 -53.845 -1.39987 -1.7863 29.7036 -10.8709 -178.024 149.624 -8.40003 177.533 -32.1803 -0.731627 -1.30401 -8.73306 8.22468 177.906 
16.2169 11.7482 -8.77289 100.833 -12.663 1.68405 0.902571 1.75706 6.11053 7.06972 0.477067 1.39819 -16.9226 -0.87716 -2.577 32.1589 -2.43765 -0.252369 -0.618124 -42.2257 -165.822 36.3341 3.545 20.7754 -0.85489 -9.67569 174.381 163.07 -17.5633 -155.893 46.9087 7.08039 26.2262 0.347065 3.96062 174.442 -22.4225 0.746078 -178.613 -53.6646 -1.40801 -1.78039 30.1021 -10.7571 -177.934 149.903 -8.08305 177.558 -32.4987 -0.746613 -1.31198 -8.32734 8.61714 177.947 
16.1609 11.7464 -8.79889 100.842 -12.1238 1.6361 0.856744 1.75187 6.13061 7.11777 0.478484 1.42621 -17.0488 -0.936704 -2.48818 32.2392 -2.55928 -0.352068 -0.424775 -41.7658 -165.72 36.2549 3.52254 20.7329 -0.855794 -9.68567 174.381 162.518 -16.1453 -155.578 48.0543 7.52821 26.7864 0.341148 3.89316 174.443 -23.294 0.612426 -178.88 -53.4433 -1.41436 -1.77413 30.4589 -10.6193 -177.863 150.144 -7.7463 177.619 -32.8572 -0.761781 -1.32087 -7.93633 9.00182 177.988 
